<svg width="223" height="28" viewBox="0 0 223 28" fill="none" xmlns="http://www.w3.org/2000/svg">
<path d="M6.1259 0V28H0V0H6.1259ZM16.8932 11.8077V16.6538H4.41591V11.8077H16.8932ZM18.0958 0V4.86538H4.41591V0H18.0958Z" fill="white"/>
<path d="M43.5533 23.1538V28H29.7418V23.1538H43.5533ZM31.8276 0V28H25.7017V0H31.8276Z" fill="white"/>
<path d="M62.9224 5.32692L55.8569 28H49.3176L59.446 0H63.5801L62.9224 5.32692ZM68.7852 28L61.701 5.32692L60.9681 0H65.1585L75.3245 28H68.7852ZM68.4845 17.5769V22.4231H54.2221V17.5769H68.4845Z" fill="white"/>
<path d="M92.6642 0V28H86.5571V0H92.6642ZM100.989 0V4.86538H78.4017V0H100.989Z" fill="white"/>
<path d="M111.564 0H116.637L123.214 20.0192L129.772 0H134.846L125.262 28H121.147L111.564 0ZM108.632 0H113.8L114.758 20.75V28H108.632V0ZM132.61 0H137.796V28H131.651V20.75L132.61 0Z" fill="white"/>
<path d="M158.668 5.32692L151.603 28H145.064L155.192 0H159.326L158.668 5.32692ZM164.531 28L157.447 5.32692L156.714 0H160.904L171.07 28H164.531ZM164.23 17.5769V22.4231H149.968V17.5769H164.23Z" fill="white"/>
<path d="M188.41 0V28H182.303V0H188.41ZM196.735 0V4.86538H174.148V0H196.735Z" fill="white"/>
<path d="M222.981 23.1538V28H208.418V23.1538H222.981ZM210.504 0V28H204.378V0H210.504ZM221.102 11.2692V15.9615H208.418V11.2692H221.102ZM223 0V4.86538H208.418V0H223Z" fill="white"/>
</svg>
