<svg width="148" height="18" viewBox="0 0 148 18" fill="none" xmlns="http://www.w3.org/2000/svg">
<path d="M4.06562 0V18H0V0H4.06562ZM11.2116 7.59066V10.706H2.93074V7.59066H11.2116ZM12.0098 0V3.12775H2.93074V0H12.0098Z" fill="black"/>
<path d="M28.9053 14.8846V18H19.739V14.8846H28.9053ZM21.1233 0V18H17.0576V0H21.1233Z" fill="black"/>
<path d="M41.7601 3.42445L37.071 18H32.731L39.453 0H42.1966L41.7601 3.42445ZM45.6512 18L40.9495 3.42445L40.4631 0H43.2442L49.9911 18H45.6512ZM45.4516 11.2995V14.4148H35.986V11.2995H45.4516Z" fill="black"/>
<path d="M61.4991 0V18H57.4459V0H61.4991ZM67.0238 0V3.12775H52.0334V0H67.0238Z" fill="black"/>
<path d="M74.0422 0H77.4094L81.7743 12.8695L86.1268 0H89.494L83.1337 18H80.4025L74.0422 0ZM72.0966 0H75.5262L76.1623 13.3393V18H72.0966V0ZM88.0099 0H91.452V18H87.3739V13.3393L88.0099 0Z" fill="black"/>
<path d="M105.305 3.42445L100.615 18H96.2753L102.997 0H105.741L105.305 3.42445ZM109.196 18L104.494 3.42445L104.008 0H106.789L113.536 18H109.196ZM108.996 11.2995V14.4148H99.5303V11.2995H108.996Z" fill="black"/>
<path d="M125.043 0V18H120.99V0H125.043ZM130.568 0V3.12775H115.578V0H130.568Z" fill="black"/>
<path d="M147.988 14.8846V18H138.322V14.8846H147.988ZM139.707 0V18H135.641V0H139.707ZM146.74 7.24451V10.261H138.322V7.24451H146.74ZM148 0V3.12775H138.322V0H148Z" fill="black"/>
</svg>
