<svg width="31" height="25" viewBox="0 0 31 25" fill="none" xmlns="http://www.w3.org/2000/svg">
<path d="M30.3992 2.90123C29.2927 3.3915 28.1042 3.72276 26.8546 3.87249C28.1439 3.10104 29.1085 1.88686 29.5683 0.456505C28.357 1.17599 27.0313 1.68244 25.6488 1.95382C24.7192 0.961172 23.4878 0.303231 22.1458 0.0821432C20.8039 -0.138945 19.4265 0.0891892 18.2275 0.731126C17.0285 1.37306 16.075 2.39289 15.515 3.63226C14.955 4.87164 14.8199 6.26123 15.1306 7.58529C12.6762 7.46206 10.2751 6.82411 8.08317 5.71286C5.89127 4.60162 3.95751 3.0419 2.40741 1.13493C1.87739 2.04922 1.57263 3.10926 1.57263 4.23821C1.57203 5.25452 1.82231 6.25526 2.30124 7.15164C2.78018 8.04803 3.47297 8.81234 4.31814 9.37676C3.33796 9.34557 2.37941 9.08072 1.52227 8.60426V8.68376C1.52217 10.1092 2.01524 11.4907 2.9178 12.594C3.82036 13.6972 5.07682 14.4543 6.474 14.7366C5.56472 14.9827 4.61142 15.0189 3.68608 14.8426C4.08028 16.0691 4.84815 17.1416 5.88218 17.91C6.91622 18.6784 8.16465 19.1042 9.45272 19.1278C7.26616 20.8443 4.56577 21.7754 1.78596 21.7713C1.29354 21.7714 0.801546 21.7427 0.3125 21.6852C3.13417 23.4994 6.4188 24.4623 9.77338 24.4585C21.1291 24.4585 27.337 15.0533 27.337 6.89626C27.337 6.63125 27.3303 6.36359 27.3184 6.09858C28.5259 5.22534 29.5682 4.14399 30.3965 2.9052L30.3992 2.90123Z" fill="white"/>
</svg>
