<svg width="152" height="151" viewBox="0 0 152 151" fill="none" xmlns="http://www.w3.org/2000/svg">
<circle cx="75.658" cy="75.4174" r="75.4174" fill="#FBDDDD"/>
<path d="M103.604 98.317H48.5496V73.8483L76.0769 47.8502L103.604 73.8483V98.317Z" fill="#E8EAF6"/>
<path d="M99.0164 70.7897L91.3699 63.1432V52.4381H99.0164V70.7897Z" fill="#C5CAE9"/>
<path d="M48.5496 98.317H103.604V105.963H48.5496V98.317Z" fill="#C5CAE9"/>
<path d="M76.0769 45.2504L45.491 73.6953L48.5496 77.0597L76.0769 51.5205L103.604 77.0597L106.663 73.6953L76.0769 45.2504Z" fill="#B71C1C"/>
<path d="M66.9012 81.4948H85.2527V105.963H66.9012V81.4948Z" fill="#D84315"/>
<path d="M71.489 64.6725H80.6648V73.8483H71.489V64.6725Z" fill="#01579B"/>
<path d="M81.4295 92.9645C80.9707 92.9645 80.6648 93.2703 80.6648 93.7291V96.7877C80.6648 97.2465 80.9707 97.5524 81.4295 97.5524C81.8883 97.5524 82.1941 97.2465 82.1941 96.7877V93.7291C82.1941 93.2703 81.8883 92.9645 81.4295 92.9645Z" fill="#FF8A65"/>
</svg>
