<svg width="12" height="14" viewBox="0 0 12 14" fill="none" xmlns="http://www.w3.org/2000/svg">
<path d="M5.8 7.6083C6.79411 7.6083 7.6 6.80241 7.6 5.8083C7.6 4.81419 6.79411 4.0083 5.8 4.0083C4.80589 4.0083 4 4.81419 4 5.8083C4 6.80241 4.80589 7.6083 5.8 7.6083Z" stroke="#939292" stroke-linecap="round" stroke-linejoin="round"/>
<path d="M5.8 1.0083C4.52696 1.0083 3.30606 1.51401 2.40589 2.41419C1.50571 3.31436 1 4.53526 1 5.8083C1 6.9435 1.2412 7.6863 1.9 8.5083L5.8 13.0083L9.7 8.5083C10.3588 7.6863 10.6 6.9435 10.6 5.8083C10.6 4.53526 10.0943 3.31436 9.19411 2.41419C8.29394 1.51401 7.07304 1.0083 5.8 1.0083V1.0083Z" stroke="#939292" stroke-linecap="round" stroke-linejoin="round"/>
</svg>
