<svg width="13" height="15" viewBox="0 0 13 15" fill="none" xmlns="http://www.w3.org/2000/svg">
<path d="M6.16226 1.07143C6.76267 1.07143 7.34959 1.22853 7.84881 1.52286C8.34803 1.81718 8.73713 2.23552 8.9669 2.72497C9.19666 3.21441 9.25678 3.75299 9.13965 4.27258C9.02251 4.79218 8.73339 5.26946 8.30884 5.64406C7.88428 6.01867 7.34337 6.27378 6.7545 6.37713C6.16563 6.48049 5.55525 6.42744 5.00055 6.22471C4.44584 6.02197 3.97173 5.67865 3.63816 5.23816C3.30459 4.79767 3.12655 4.27979 3.12655 3.75002C3.12655 3.03961 3.44638 2.3583 4.01569 1.85597C4.585 1.35364 5.35714 1.07143 6.16226 1.07143ZM6.16226 0C5.32169 0 4.5 0.219935 3.80109 0.631992C3.10218 1.04405 2.55745 1.62972 2.23578 2.31495C1.9141 3.00017 1.82994 3.75418 1.99393 4.48161C2.15791 5.20904 2.56269 5.87723 3.15706 6.40168C3.75143 6.92613 4.50871 7.28328 5.33313 7.42798C6.15755 7.57267 7.01208 7.49841 7.78867 7.21458C8.56525 6.93075 9.22901 6.4501 9.69601 5.83342C10.163 5.21673 10.4123 4.4917 10.4123 3.75002C10.4123 2.75545 9.96449 1.80162 9.16747 1.09835C8.37044 0.39509 7.28943 0 6.16226 0Z" fill="#939292"/>
<path d="M12.2337 15.0001H11.0194V12.3216C11.0194 11.6111 10.6996 10.9298 10.1302 10.4275C9.56094 9.92517 8.7888 9.64297 7.98368 9.64297H4.34082C3.5357 9.64297 2.76355 9.92517 2.19425 10.4275C1.62494 10.9298 1.30511 11.6111 1.30511 12.3216V15.0001H0.0908203V12.3216C0.0908203 11.327 0.538587 10.3732 1.33562 9.66989C2.13265 8.96662 3.21365 8.57153 4.34082 8.57153H7.98368C9.11084 8.57153 10.1918 8.96662 10.9889 9.66989C11.7859 10.3732 12.2337 11.327 12.2337 12.3216V15.0001Z" fill="#939292"/>
</svg>
