<svg width="159" height="150" viewBox="0 0 159 150" fill="none" xmlns="http://www.w3.org/2000/svg">
<path d="M145.452 128.521C160.431 109.321 158.922 84.6646 158.875 84.3833V9.3833C158.875 6.8969 158.039 4.51233 156.55 2.75418C155.061 0.996023 153.042 0.00830078 150.937 0.00830078H103.312C94.5572 0.00830078 87.4373 8.41768 87.4373 18.7583V84.3833C87.4373 86.8697 88.2735 89.2543 89.7621 91.0124C91.2507 92.7706 93.2696 93.7583 95.3748 93.7583H119.806C119.639 98.3932 118.466 102.9 116.401 106.846C112.369 114.355 104.773 119.483 93.8111 122.071L87.4373 123.571V150.008H95.3748C117.465 150.008 134.316 142.78 145.452 128.521ZM58.0844 128.521C73.0704 109.321 71.5543 84.6646 71.5067 84.3833V9.3833C71.5067 6.8969 70.6704 4.51233 69.1819 2.75418C67.6933 0.996023 65.6744 0.00830078 63.5692 0.00830078H15.9442C7.18915 0.00830078 0.0692139 8.41768 0.0692139 18.7583V84.3833C0.0692139 86.8697 0.905483 89.2543 2.39405 91.0124C3.88262 92.7706 5.90156 93.7583 8.00671 93.7583H32.4383C32.2706 98.3932 31.0981 102.9 29.0332 106.846C25.0009 114.355 17.4047 119.483 6.44303 122.071L0.0692139 123.571V150.008H8.00671C30.0968 150.008 46.9481 142.78 58.0844 128.521Z" fill="#F3F3F5"/>
</svg>
